name C:\Users\u0101727\Documents\MyRepositories\upper-imu-dc\Results\main_tracking\Case_47\FLX03_linearAccelerations_groundFrame.mot
datacolumns 4
datarows 94
range 0.51000000 1.44000000
endheader 
time	radius_imu_x	radius_imu_y	radius_imu_z	
          0.51000000	         -0.36053677	          9.78200995	         -1.62967830	
          0.52000000	         -0.31813407	          9.74741835	         -1.77269597	
          0.53000000	         -0.33179674	          9.72959838	         -1.81028193	
          0.54000000	         -0.35316831	          9.72760849	         -1.81528825	
          0.55000000	         -0.37117086	          9.73037064	         -1.80542441	
          0.56000000	         -0.38203949	          9.73690858	         -1.78899214	
          0.57000000	         -0.38524100	          9.74561161	         -1.76989071	
          0.58000000	         -0.38068612	          9.75588319	         -1.75060896	
          0.59000000	         -0.36755723	          9.76719846	         -1.73242893	
          0.60000000	         -0.34517703	          9.77910455	         -1.71637326	
          0.61000000	         -0.31340947	          9.79099543	         -1.70318997	
          0.62000000	         -0.27322431	          9.80236966	         -1.69290746	
          0.63000000	         -0.22584250	          9.81313719	         -1.68422172	
          0.64000000	         -0.17100168	          9.82384013	         -1.67415039	
          0.65000000	         -0.10788972	          9.83527157	         -1.65938863	
          0.66000000	         -0.03612219	          9.84806452	         -1.63746771	
          0.67000000	          0.04351588	          9.86228569	         -1.60796116	
          0.68000000	          0.12902116	          9.87761961	         -1.57188110	
          0.69000000	          0.21788848	          9.89353914	         -1.53106658	
          0.70000000	          0.30754312	          9.90951346	         -1.48748708	
          0.71000000	          0.39533928	          9.92505279	         -1.44301518	
          0.72000000	          0.47889370	          9.93966197	         -1.39955480	
          0.73000000	          0.55659510	          9.95303335	         -1.35839878	
          0.74000000	          0.62756719	          9.96511119	         -1.32004755	
          0.75000000	          0.69077729	          9.97590312	         -1.28454690	
          0.76000000	          0.74418580	          9.98540191	         -1.25159555	
          0.77000000	          0.78508316	          9.99366827	         -1.22029681	
          0.78000000	          0.81155832	         10.00100736	         -1.18899692	
          0.79000000	          0.82418442	         10.00813548	         -1.15512093	
          0.80000000	          0.82654784	         10.01612232	         -1.11561591	
          0.81000000	          0.82363100	         10.02604501	         -1.06765248	
          0.82000000	          0.81935398	         10.03874136	         -1.00898326	
          0.83000000	          0.81539025	         10.05460829	         -0.93829772	
          0.84000000	          0.81090967	         10.07361794	         -0.85531578	
          0.85000000	          0.80361044	         10.09526305	         -0.76113213	
          0.86000000	          0.79119640	         10.11865217	         -0.65833739	
          0.87000000	          0.77258833	         10.14279409	         -0.55038304	
          0.88000000	          0.74789514	         10.16683370	         -0.44082847	
          0.89000000	          0.71675760	         10.19005557	         -0.33302544	
          0.90000000	          0.67729209	         10.21187745	         -0.22972557	
          0.91000000	          0.62783515	         10.23206889	         -0.13289137	
          0.92000000	          0.57034842	         10.25107345	         -0.04321657	
          0.93000000	          0.51089710	         10.27013268	          0.03983998	
          0.94000000	          0.45444405	         10.28996868	          0.11617725	
          0.95000000	          0.39876313	         10.31082692	          0.18623978	
          0.96000000	          0.33818180	         10.33247842	          0.25043504	
          0.97000000	          0.27021498	         10.35524227	          0.30965006	
          0.98000000	          0.20191549	         10.37999146	          0.36360614	
          0.99000000	          0.14364486	         10.40737252	          0.41059418	
          1.00000000	          0.09888216	         10.43626189	          0.44680465	
          1.01000000	          0.05494355	         10.46314715	          0.46972828	
          1.02000000	         -0.01118574	         10.48561013	          0.48147328	
          1.03000000	         -0.07530089	         10.50260529	          0.47398895	
          1.04000000	         -0.12947947	         10.51068989	          0.44048951	
          1.05000000	         -0.20811779	         10.50203081	          0.37883743	
          1.06000000	         -0.33553853	         10.46723124	          0.28278358	
          1.07000000	         -0.51648151	         10.39840911	          0.14366874	
          1.08000000	         -0.75592327	         10.28779300	         -0.04383704	
          1.09000000	         -1.06355391	         10.13036485	         -0.28061053	
          1.10000000	         -1.43405222	          9.91908886	         -0.55683005	
          1.11000000	         -1.79898259	          9.69643931	         -0.88708830	
          1.12000000	         -1.98981940	          9.43873227	         -1.05621677	
          1.13000000	         -0.78413649	         10.05477367	         -0.79570409	
          1.14000000	         -1.01693313	         11.15083640	          1.49429180	
          1.15000000	         -0.68983116	         10.81672281	          0.78108390	
          1.16000000	         -1.23803139	         10.49637903	          0.43344321	
          1.17000000	         -1.56656129	         10.14120973	          0.12034737	
          1.18000000	         -1.08125391	         10.60373763	          0.38924522	
          1.19000000	         -1.60634781	         11.46904451	          2.27175319	
          1.20000000	         -1.60475013	         11.07386521	          1.31088507	
          1.21000000	         -1.46562770	         11.02504212	          1.38080662	
          1.22000000	         -1.85268090	         10.84822684	          1.15353580	
          1.23000000	         -1.90272569	         11.07179682	          1.20892274	
          1.24000000	         -1.16078093	         11.42822929	          1.57962050	
          1.25000000	         -1.32771396	         11.58580362	          1.75762497	
          1.26000000	         -1.65921468	         11.49173369	          1.65785525	
          1.27000000	         -1.98042810	         11.34057001	          1.47395930	
          1.28000000	         -2.26734393	         11.19719649	          1.28899743	
          1.29000000	         -2.48796581	         11.08175504	          1.12544484	
          1.30000000	         -2.65808223	         10.99891531	          0.99451761	
          1.31000000	         -2.81293368	         10.94127925	          0.90359188	
          1.32000000	         -2.93447602	         10.90474417	          0.82928945	
          1.33000000	         -3.03061834	         10.88274829	          0.76140565	
          1.34000000	         -3.10910427	         10.86844100	          0.69325008	
          1.35000000	         -3.17556137	         10.85679759	          0.61989329	
          1.36000000	         -3.23634872	         10.84347624	          0.53989162	
          1.37000000	         -3.29254248	         10.82568873	          0.45073768	
          1.38000000	         -3.34318241	         10.80166830	          0.35025630	
          1.39000000	         -3.38604755	         10.77058932	          0.23686353	
          1.40000000	         -3.41869716	         10.73249415	          0.11004537	
          1.41000000	         -3.43889244	         10.68812828	         -0.02962691	
          1.42000000	         -3.44483939	         10.63869975	         -0.18069635	
          1.43000000	         -3.43523369	         10.58565334	         -0.34111391	
          1.44000000	         -3.40911162	         10.53059596	         -0.50856206	
